<?xml version="1.0" standalone="no"?>
<!DOCTYPE svg PUBLIC "-//W3C//DTD SVG 20010904//EN"
 "http://www.w3.org/TR/2001/REC-SVG-20010904/DTD/svg10.dtd">
<svg version="1.0" xmlns="http://www.w3.org/2000/svg"
 width="400.000000pt" height="400.000000pt" viewBox="0 0 400.000000 400.000000"
 preserveAspectRatio="xMidYMid meet">
<metadata>
Created by potrace 1.14, written by Peter Selinger 2001-2017
</metadata>
<g transform="translate(0.000000,400.000000) scale(0.100000,-0.100000)"
fill="#000000" stroke="none">
<path d="M727 3946 c-30 -30 -61 -70 -71 -90 -30 -63 -76 -200 -76 -227 0 -14
-4 -29 -9 -35 -21 -21 -40 -304 -21 -304 9 0 10 -11 5 -37 -12 -64 -17 -253
-7 -253 6 0 13 -16 16 -35 3 -19 9 -51 12 -70 3 -19 10 -38 15 -41 5 -3 9 -15
9 -28 0 -12 6 -28 13 -34 8 -9 12 -45 12 -108 0 -105 -5 -114 -63 -114 -61 0
-126 -47 -139 -99 -3 -14 -9 -30 -13 -36 -21 -29 -18 -235 5 -340 11 -53 66
-175 78 -175 4 0 7 -8 7 -18 0 -10 9 -24 20 -32 11 -8 20 -18 20 -22 0 -4 16
-25 35 -45 19 -20 35 -41 35 -45 0 -4 6 -8 13 -8 7 0 19 -9 27 -20 8 -11 20
-20 27 -20 7 0 13 -4 13 -8 0 -17 77 -46 134 -51 l58 -6 15 -45 c21 -68 45
-120 55 -120 4 0 8 -6 8 -14 0 -18 172 -196 188 -196 7 0 12 -4 12 -10 0 -5 5
-10 10 -10 6 0 22 -11 36 -25 14 -14 29 -25 34 -25 5 0 15 -6 22 -13 7 -7 48
-32 90 -56 98 -54 108 -64 108 -112 l0 -39 -270 0 c-173 0 -270 -4 -270 -10 0
-5 -11 -10 -25 -10 -14 0 -25 -4 -25 -10 0 -5 -7 -10 -15 -10 -17 0 -51 -18
-72 -37 -7 -6 -21 -14 -31 -18 -19 -7 -99 -101 -121 -143 -44 -83 -51 -123
-51 -289 0 -130 3 -163 13 -163 26 0 37 -50 37 -170 l0 -120 40 0 40 0 0 135
0 135 80 0 c47 0 80 -4 80 -10 0 -6 28 -10 65 -10 58 0 65 -2 65 -20 0 -11 5
-20 10 -20 6 0 10 -42 10 -105 l0 -105 949 0 950 0 4 88 c3 48 8 104 12 125
l7 37 79 0 c46 0 79 4 79 10 0 6 28 10 65 10 l65 0 0 -30 c0 -16 5 -30 10 -30
6 0 10 -42 10 -105 l0 -105 30 0 30 0 0 145 0 145 25 0 c17 0 29 8 37 25 22
49 -24 415 -53 415 -5 0 -9 9 -9 20 0 11 -4 20 -10 20 -5 0 -10 8 -10 18 0 10
-9 24 -20 32 -11 8 -20 18 -20 23 0 17 -70 74 -118 97 -26 12 -55 26 -64 31
-10 5 -25 9 -33 9 -8 0 -15 5 -15 10 0 6 -100 10 -280 10 l-280 0 0 35 c0 30
5 39 31 53 53 29 173 106 187 119 7 7 17 13 22 13 5 0 20 11 34 25 14 14 30
25 37 25 13 0 159 146 177 177 6 13 12 30 12 38 0 8 5 15 10 15 6 0 10 9 10
20 0 11 5 20 10 20 6 0 10 14 10 30 0 17 5 30 10 30 6 0 10 13 10 29 l0 30 68
-6 c58 -5 74 -2 112 17 25 13 57 36 71 51 15 16 30 29 33 29 18 0 136 147 136
168 0 7 5 12 10 12 6 0 10 9 10 19 0 11 5 23 10 26 6 3 10 15 10 26 0 10 5 19
10 19 6 0 10 14 10 30 0 17 4 30 9 30 21 0 41 314 22 333 -6 6 -11 21 -11 34
0 13 -4 23 -10 23 -5 0 -10 9 -10 21 0 30 -28 52 -102 79 -25 9 -28 14 -28 57
1 27 5 68 11 93 41 189 43 558 4 685 -4 14 1 27 14 39 12 11 21 28 21 39 0 46
-104 307 -122 307 -4 0 -8 5 -8 12 0 14 -126 138 -140 138 -6 0 -10 5 -10 10
0 6 -7 10 -15 10 -8 0 -15 5 -15 10 0 6 -7 10 -15 10 -8 0 -15 5 -15 10 0 7
-390 10 -1149 10 l-1150 0 -54 -54z m2029 -380 c8 -8 14 -32 14 -53 0 -22 4
-43 9 -48 5 -6 12 -39 14 -75 3 -36 10 -87 16 -115 6 -27 13 -66 16 -85 4 -19
10 -44 15 -55 4 -11 19 -56 33 -100 35 -109 52 -153 60 -161 4 -4 7 -18 7 -30
0 -13 5 -26 10 -29 6 -3 10 -15 10 -26 0 -10 5 -19 10 -19 6 0 10 -9 10 -20 0
-11 5 -20 10 -20 6 0 10 -7 10 -15 0 -8 5 -15 10 -15 6 0 10 -7 10 -15 0 -8 5
-15 10 -15 16 0 12 -119 -4 -136 -28 -28 -66 -5 -66 40 0 14 -4 26 -10 26 -5
0 -10 5 -10 11 0 16 -26 39 -60 50 -16 6 -30 15 -30 20 0 5 -75 9 -167 9 -112
0 -163 4 -153 10 8 5 27 10 43 10 15 0 27 5 27 10 0 6 20 10 45 10 25 0 45 5
45 10 0 6 37 10 90 10 53 0 90 -4 90 -10 0 -5 11 -10 25 -10 14 0 25 2 25 5 0
10 -24 55 -29 55 -3 0 -19 11 -35 25 -23 20 -40 25 -84 25 -69 0 -272 -31
-272 -42 0 -4 -22 -8 -50 -8 -27 0 -50 -4 -50 -10 0 -5 -23 -10 -51 -10 -41 0
-56 -5 -72 -22 -13 -16 -21 -19 -24 -10 -8 21 -43 14 -43 -8 0 -11 -4 -20 -9
-20 -5 0 -14 -13 -20 -30 -11 -34 -31 -40 -31 -10 0 11 3 20 8 20 9 0 32 73
25 80 -3 3 -8 -1 -10 -7 -3 -7 -11 -13 -20 -13 -20 0 -37 -19 -51 -59 -18 -51
-16 -70 8 -64 28 8 51 -4 44 -22 -7 -18 -33 -19 -55 -2 -22 17 -203 21 -262 6
-44 -11 -50 -10 -67 9 -19 21 -19 21 0 27 16 5 20 15 20 46 0 21 -4 39 -10 39
-5 0 -10 9 -10 20 0 11 -4 20 -10 20 -5 0 -10 -9 -10 -20 0 -11 -4 -20 -10
-20 -5 0 -10 9 -10 20 0 16 -7 20 -30 20 -23 0 -30 -4 -30 -20 0 -11 5 -20 10
-20 6 0 10 -9 10 -20 0 -11 -4 -20 -10 -20 -5 0 -10 9 -10 20 0 11 -4 20 -9
20 -5 0 -13 9 -16 20 -5 15 -15 20 -40 20 -19 0 -36 4 -39 9 -3 5 -20 11 -38
14 -18 3 -67 14 -109 25 -41 11 -115 23 -165 26 -99 8 -137 -2 -186 -48 -15
-14 -32 -26 -38 -26 -5 0 -10 -9 -10 -20 0 -18 10 -19 168 -24 179 -4 261 -13
277 -27 5 -5 -70 -9 -188 -9 -119 0 -197 -4 -197 -10 0 -5 -18 -14 -40 -20
-24 -6 -40 -17 -40 -25 0 -8 -3 -15 -8 -15 -7 0 -25 -37 -37 -77 -7 -26 -40
-31 -49 -7 -12 31 -5 79 14 104 11 14 20 31 20 38 0 6 5 12 10 12 6 0 10 9 10
20 0 11 5 20 10 20 6 0 10 9 10 20 0 11 5 20 10 20 6 0 10 13 10 29 0 17 5 33
10 36 6 3 10 24 10 46 0 21 5 39 10 39 6 0 10 33 10 80 0 67 3 83 20 100 13
13 20 33 20 61 0 58 16 69 99 69 41 0 71 4 71 10 0 6 14 10 30 10 23 0 30 -4
30 -20 0 -19 7 -20 249 -20 156 0 252 4 256 10 3 6 42 10 86 10 46 0 79 4 79
10 0 6 27 10 60 10 33 0 60 4 60 10 0 6 12 10 26 10 31 0 28 -20 -4 -35 -12
-5 -22 -13 -22 -17 0 -5 -22 -8 -50 -8 -27 0 -50 -4 -50 -10 0 -6 -38 -10 -95
-10 -52 0 -95 -4 -95 -8 0 -5 9 -17 21 -28 19 -17 37 -19 168 -18 132 0 154 3
224 27 42 15 84 27 92 27 8 0 15 5 15 10 0 6 7 10 15 10 8 0 15 5 15 10 0 6 7
10 15 10 8 0 15 5 15 10 0 6 5 10 10 10 15 0 226 203 300 289 19 22 36 40 38
41 2 0 10 -6 18 -14z m-506 -866 c0 -5 -4 -10 -10 -10 -5 0 -10 5 -10 10 0 6
5 10 10 10 6 0 10 -4 10 -10z m-564 -177 c-4 -32 -9 -89 -12 -128 -5 -73 -17
-109 -46 -135 -22 -21 -37 -95 -17 -86 8 3 22 9 31 12 10 3 20 15 23 25 4 10
11 19 16 19 5 0 9 9 9 20 0 11 5 20 10 20 6 0 10 10 10 23 1 30 20 52 53 61
21 5 27 12 27 34 0 15 4 33 9 40 13 21 19 -4 26 -119 10 -150 -20 -409 -47
-409 -4 0 -8 -9 -8 -20 0 -11 -4 -20 -10 -20 -5 0 -10 -13 -10 -30 0 -32 -2
-33 -38 -24 -21 6 -23 12 -21 58 2 39 0 51 -11 51 -21 0 -44 -47 -37 -76 8
-30 39 -69 56 -69 6 0 11 -4 11 -10 0 -5 8 -10 18 -10 10 0 24 -9 32 -20 8
-11 22 -20 32 -20 10 0 18 -4 18 -10 0 -6 41 -10 103 -10 91 0 104 2 117 20 8
11 25 20 37 20 13 0 23 5 23 10 0 6 16 10 36 10 36 0 49 9 72 48 15 26 16 68
2 77 -5 3 -10 15 -10 26 0 23 -15 25 -24 3 -4 -9 0 -24 9 -34 18 -20 19 -28 3
-44 -7 -8 -20 -23 -28 -35 -11 -16 -25 -21 -60 -21 -34 0 -49 -5 -60 -20 -8
-11 -22 -20 -32 -20 -10 0 -18 -4 -18 -10 0 -5 -22 -10 -49 -10 -28 0 -53 5
-56 10 -3 6 -21 10 -40 10 -38 0 -45 12 -45 76 0 41 9 67 36 104 31 42 43 399
18 558 -9 60 8 71 114 72 48 0 82 -4 82 -10 0 -5 17 -10 38 -10 47 0 62 -25
62 -100 0 -54 15 -70 64 -70 l26 0 0 101 c0 74 4 104 14 115 12 11 68 14 319
14 l304 0 11 -25 c7 -14 12 -71 12 -125 l0 -100 33 0 c44 0 57 15 57 67 0 36
3 43 20 43 16 0 20 -7 20 -34 0 -32 3 -35 38 -41 52 -9 70 -21 54 -37 -6 -6
-12 -31 -12 -55 0 -24 -4 -43 -9 -43 -5 0 -12 -24 -15 -52 -14 -133 -19 -158
-27 -158 -5 0 -9 -18 -9 -40 0 -22 -4 -40 -10 -40 -5 0 -10 -13 -10 -30 0 -16
-4 -30 -10 -30 -5 0 -10 -20 -10 -45 0 -25 -4 -45 -10 -45 -5 0 -10 -22 -10
-50 0 -27 -4 -50 -10 -50 -5 0 -10 -18 -10 -39 0 -22 -4 -42 -8 -45 -4 -3 -14
-28 -22 -55 -7 -28 -17 -51 -21 -51 -4 0 -10 -8 -13 -18 -8 -24 -122 -141
-168 -172 -21 -14 -38 -28 -38 -32 0 -5 -7 -8 -15 -8 -8 0 -15 -4 -15 -10 0
-5 -7 -10 -15 -10 -8 0 -15 -4 -15 -10 0 -5 -7 -10 -15 -10 -8 0 -15 -4 -15
-9 0 -5 -8 -11 -17 -14 -19 -6 -75 -38 -83 -48 -10 -11 -145 -79 -157 -79 -7
0 -13 -4 -13 -8 0 -5 -22 -15 -50 -22 -27 -7 -50 -17 -50 -22 0 -4 -13 -8 -30
-8 -16 0 -30 -4 -30 -10 0 -5 -13 -10 -30 -10 -16 0 -30 -4 -30 -9 0 -19 -175
-40 -193 -22 -6 6 -28 11 -49 11 -21 0 -38 5 -38 10 0 6 -13 10 -30 10 -16 0
-30 5 -30 10 0 6 -13 10 -30 10 -16 0 -30 5 -30 10 0 6 -9 10 -20 10 -11 0
-29 5 -40 10 -11 5 -29 14 -40 20 -11 5 -27 10 -35 10 -8 0 -15 5 -15 10 0 6
-7 10 -16 10 -18 0 -77 31 -82 43 -2 4 -12 7 -23 7 -10 0 -19 5 -19 10 0 6 -9
10 -20 10 -11 0 -20 5 -20 10 0 6 -7 10 -15 10 -8 0 -15 5 -15 10 0 6 -8 10
-18 10 -10 0 -24 9 -32 20 -8 11 -21 20 -30 20 -9 0 -22 9 -30 20 -8 11 -21
20 -28 20 -19 0 -212 195 -212 214 0 9 -4 16 -10 16 -5 0 -10 9 -10 20 0 11
-4 20 -10 20 -5 0 -10 8 -10 18 0 10 -4 22 -9 27 -9 10 -14 36 -31 170 -26
210 -44 319 -84 505 -17 79 -10 90 53 90 35 0 50 -5 61 -20 10 -14 26 -20 53
-20 39 0 39 0 32 33 -14 71 -17 117 -6 117 6 0 11 16 11 35 0 66 -8 64 338 65
l314 0 -6 -57z m-994 -83 c32 -32 58 -66 58 -74 0 -9 5 -16 10 -16 6 0 10 -13
10 -30 0 -16 5 -30 10 -30 6 0 10 -18 10 -39 0 -22 5 -43 10 -46 6 -3 10 -30
10 -59 0 -28 4 -56 9 -62 5 -5 12 -31 15 -59 3 -27 8 -70 12 -94 6 -41 -3 -60
-27 -61 -14 0 -69 59 -69 74 0 9 -4 16 -10 16 -5 0 -10 14 -10 30 0 17 5 30
10 30 6 0 10 9 10 20 0 11 3 20 8 20 12 0 34 54 22 58 -5 2 -10 17 -10 33 0
16 -4 29 -10 29 -5 0 -10 11 -10 25 0 14 -4 25 -10 25 -5 0 -10 14 -10 30 0
17 -4 30 -10 30 -5 0 -10 9 -10 20 0 11 -4 20 -10 20 -5 0 -10 6 -10 14 0 8
-21 33 -46 55 -38 33 -54 41 -85 41 -32 0 -39 -3 -39 -20 0 -11 -4 -20 -10
-20 -5 0 -10 -16 -10 -35 0 -19 -4 -35 -10 -35 -5 0 -10 -9 -10 -20 0 -11 5
-20 10 -20 6 0 10 -18 10 -40 0 -35 3 -40 22 -40 17 0 19 3 10 12 -7 7 -12 42
-12 89 0 82 5 89 54 89 29 0 81 -53 73 -74 -4 -9 -14 -16 -22 -16 -16 0 -45
-22 -45 -34 0 -3 14 -6 30 -6 17 0 30 5 30 10 0 6 11 10 25 10 18 0 25 -5 25
-20 0 -11 5 -20 10 -20 6 0 10 -18 10 -40 0 -31 -4 -40 -17 -40 -29 0 -65 -67
-70 -132 -6 -59 -17 -74 -28 -38 -3 11 -15 20 -26 20 -22 0 -25 -13 -6 -32 6
-7 25 -32 40 -55 16 -22 44 -56 64 -73 34 -31 38 -32 103 -28 38 3 74 2 81 -2
7 -5 14 -33 17 -64 l4 -56 -40 0 c-23 0 -44 5 -47 10 -3 6 -15 10 -26 10 -11
0 -36 16 -57 36 -95 90 -114 112 -140 149 -15 22 -30 42 -34 43 -5 2 -8 12 -8
23 0 10 -4 19 -10 19 -5 0 -10 14 -10 30 0 17 -4 30 -10 30 -5 0 -10 18 -10
40 0 22 -4 40 -10 40 -6 0 -10 53 -10 140 0 87 4 140 10 140 6 0 10 9 10 20 0
11 5 20 10 20 6 0 10 9 10 19 0 22 28 29 95 22 32 -3 49 -14 97 -61z m2744 35
c13 -13 24 -33 24 -44 0 -11 5 -23 10 -26 6 -4 10 -58 10 -131 0 -76 -4 -124
-10 -124 -5 0 -10 -17 -10 -37 0 -21 -7 -47 -15 -57 -8 -11 -15 -28 -15 -38 0
-10 -4 -18 -10 -18 -5 0 -10 -9 -10 -20 0 -11 -4 -20 -8 -20 -5 0 -14 -11 -20
-24 -19 -42 -152 -186 -171 -186 -6 0 -11 -4 -11 -10 0 -5 -11 -10 -25 -10
-14 0 -25 -4 -25 -10 0 -15 -80 -12 -96 4 -17 18 -18 49 -1 79 19 34 24 35
108 30 77 -6 79 -5 106 24 48 53 83 98 83 108 0 6 9 17 20 25 11 8 20 18 20
22 0 16 -36 7 -50 -12 -23 -32 -30 -24 -30 35 0 71 -16 101 -79 145 -21 15
-29 50 -11 50 6 0 10 7 10 16 0 34 59 60 75 34 7 -12 45 -14 45 -2 0 15 -16
30 -35 33 -11 3 -21 14 -23 26 -4 25 44 63 81 63 22 0 27 -7 36 -47 8 -34 8
-59 1 -83 -13 -47 -13 -60 4 -60 20 0 26 23 26 102 0 89 -23 128 -76 128 -19
0 -34 -4 -34 -10 0 -5 -7 -10 -16 -10 -18 0 -44 -23 -44 -39 0 -6 -4 -11 -10
-11 -5 0 -10 -7 -10 -15 0 -8 -4 -15 -10 -15 -5 0 -10 -7 -10 -15 0 -8 -4 -15
-10 -15 -5 0 -10 -13 -10 -30 0 -16 -4 -30 -10 -30 -5 0 -10 -11 -10 -24 0
-14 -4 -27 -9 -30 -5 -3 -12 -22 -15 -41 -4 -19 -11 -35 -17 -35 -11 0 2 -30
23 -52 7 -7 19 -25 27 -40 12 -24 12 -32 0 -55 -27 -53 -72 -103 -93 -103 -36
0 -50 15 -37 38 6 11 11 29 11 40 0 11 10 48 21 83 12 35 26 91 30 124 16 116
22 140 40 167 11 14 19 29 19 32 0 6 19 30 68 84 17 20 32 41 32 48 0 32 112
23 146 -11z m-2706 -365 c0 -16 -4 -30 -8 -30 -4 0 -14 -21 -21 -46 -11 -36
-11 -51 -3 -65 7 -10 12 -26 12 -34 0 -8 5 -15 10 -15 6 0 10 -6 10 -14 0 -8
6 -16 13 -19 22 -8 -2 -20 -28 -13 -20 5 -25 13 -25 36 0 17 -4 30 -10 30 -6
0 -10 33 -10 78 0 65 3 82 20 100 28 30 40 28 40 -8z m2515 5 c22 -21 25 -33
25 -90 0 -37 -4 -65 -10 -65 -5 0 -10 -18 -10 -39 0 -38 -11 -51 -46 -51 -20
0 -17 17 6 42 11 12 20 32 20 45 0 13 5 23 10 23 6 0 10 9 10 20 0 11 -4 20
-10 20 -5 0 -10 14 -10 30 0 17 -4 30 -10 30 -5 0 -10 6 -10 14 0 8 -5 16 -12
18 -13 5 -2 28 13 28 5 0 21 -11 34 -25z m-1683 -1095 c8 -12 24 -20 40 -20
16 0 28 -4 28 -10 0 -5 11 -10 24 -10 14 0 28 -4 31 -10 3 -5 17 -10 31 -10
14 0 34 -5 45 -11 44 -23 135 -39 226 -39 78 0 111 5 177 27 44 15 83 31 84
35 2 5 15 8 28 8 13 0 24 5 24 10 0 6 7 10 15 10 8 0 15 3 15 8 0 7 47 32 62
32 4 0 8 -45 8 -100 0 -73 -4 -110 -16 -132 -21 -40 -79 -98 -99 -98 -8 0 -15
-4 -15 -10 0 -5 -13 -10 -30 -10 -16 0 -30 -4 -30 -8 0 -13 -159 -32 -271 -32
-117 0 -242 16 -247 30 -2 6 -15 10 -28 10 -13 0 -24 5 -24 10 0 6 -6 10 -13
10 -19 0 -87 65 -87 84 0 9 -4 16 -10 16 -6 0 -10 45 -10 115 0 95 3 115 15
115 8 0 20 -9 27 -20z"/>
<path d="M1470 2483 c-10 -12 -11 -18 -2 -21 19 -6 14 -40 -8 -47 -28 -9 -58
3 -65 26 -4 13 -15 19 -36 19 -16 0 -29 -4 -29 -10 0 -5 -13 -10 -30 -10 -16
0 -30 -4 -30 -10 0 -5 -13 -10 -29 -10 -20 0 -30 -6 -34 -19 -6 -25 3 -71 14
-71 5 0 9 -7 9 -15 0 -8 4 -15 10 -15 5 0 20 -11 34 -25 22 -22 34 -25 96 -25
38 0 70 3 70 8 0 4 14 13 30 20 17 8 30 20 30 28 0 8 3 14 8 14 12 0 32 53 32
87 0 25 4 33 18 33 10 0 22 -4 28 -9 5 -4 21 -11 37 -15 20 -5 27 -3 27 9 0 8
-4 15 -9 15 -5 0 -11 9 -14 20 -4 15 -14 20 -41 20 -20 0 -36 5 -36 10 0 16
-64 11 -80 -7z"/>
<path d="M2663 2464 c-7 -7 -13 -20 -13 -27 0 -23 -48 -30 -76 -12 -26 17 -74
20 -74 5 0 -5 -13 -10 -28 -10 -15 0 -32 -4 -37 -9 -6 -5 -21 -11 -35 -13 -20
-2 -25 -8 -23 -31 1 -15 9 -34 17 -43 9 -8 16 -20 16 -25 0 -5 5 -9 10 -9 6 0
20 -9 32 -20 17 -16 36 -20 90 -20 37 0 68 3 68 8 0 4 13 13 28 20 58 25 94
149 55 185 -15 13 -20 13 -30 1z"/>
<path d="M2770 2475 c0 -3 16 -21 37 -41 27 -27 38 -32 44 -22 22 34 -3 68
-50 68 -17 0 -31 -2 -31 -5z"/>
<path d="M1533 1523 c-25 -10 -12 -23 22 -23 19 0 35 -4 35 -10 0 -6 28 -10
64 -10 36 0 68 -4 71 -10 4 -6 87 -10 215 -10 128 0 211 4 215 10 3 6 50 10
106 10 59 0 99 4 99 10 0 6 14 10 30 10 33 0 41 15 11 23 -27 7 -111 -4 -111
-14 0 -12 -637 -12 -642 0 -4 10 -97 22 -115 14z"/>
<path d="M1774 1311 c-2 -2 -4 -13 -4 -23 0 -17 11 -18 155 -18 155 0 155 0
155 23 0 23 0 23 -151 22 -83 0 -152 -2 -155 -4z"/>
</g>
</svg>
